<svg width="20" height="20" viewBox="0 0 20 20" fill="none" xmlns="http://www.w3.org/2000/svg">
<path d="M5.83317 9.16675L9.1665 1.66675C9.82954 1.66675 10.4654 1.93014 10.9343 2.39898C11.4031 2.86782 11.6665 3.50371 11.6665 4.16675V7.50008H16.3832C16.6248 7.49735 16.8641 7.54717 17.0845 7.6461C17.3049 7.74502 17.5012 7.89069 17.6597 8.07301C17.8183 8.25533 17.9353 8.46993 18.0026 8.70196C18.07 8.93398 18.0861 9.17788 18.0498 9.41675L16.8998 16.9167C16.8396 17.3142 16.6377 17.6764 16.3314 17.9368C16.0252 18.1971 15.6351 18.338 15.2332 18.3334H5.83317M5.83317 9.16675V18.3334M5.83317 9.16675H3.33317C2.89114 9.16675 2.46722 9.34234 2.15466 9.6549C1.8421 9.96746 1.6665 10.3914 1.6665 10.8334V16.6667C1.6665 17.1088 1.8421 17.5327 2.15466 17.8453C2.46722 18.1578 2.89114 18.3334 3.33317 18.3334H5.83317" stroke="#141218" stroke-linecap="round" stroke-linejoin="round"/>
</svg>
