<svg width="20" height="20" viewBox="0 0 20 20" fill="none" xmlns="http://www.w3.org/2000/svg">
<path d="M14.1668 10.8333L10.8335 18.3333C10.1705 18.3333 9.53457 18.0699 9.06573 17.601C8.59689 17.1322 8.3335 16.4963 8.3335 15.8333V12.4999H3.61683C3.37524 12.5027 3.13594 12.4528 2.91552 12.3539C2.6951 12.255 2.49882 12.1093 2.34028 11.927C2.18174 11.7447 2.06474 11.5301 1.99738 11.298C1.93002 11.066 1.91391 10.8221 1.95016 10.5833L3.10016 3.08325C3.16043 2.68583 3.3623 2.32358 3.66857 2.06325C3.97485 1.80291 4.36489 1.66204 4.76683 1.66659H14.1668M14.1668 10.8333V1.66659M14.1668 10.8333H16.6668C17.1089 10.8333 17.5328 10.6577 17.8453 10.3451C18.1579 10.0325 18.3335 9.60861 18.3335 9.16659V3.33325C18.3335 2.89122 18.1579 2.4673 17.8453 2.15474C17.5328 1.84218 17.1089 1.66659 16.6668 1.66659H14.1668" stroke="#141218" stroke-linecap="round" stroke-linejoin="round"/>
</svg>
